<svg width="1200" height="700" viewBox="0 0 1200 700" fill="none" xmlns="http://www.w3.org/2000/svg">
  <rect width="1200" height="700" rx="36" fill="#F8FAFC"/>
  <circle cx="120" cy="92" r="72" fill="#22C55E" fill-opacity="0.18"/>
  <circle cx="1090" cy="620" r="86" fill="#EF4444" fill-opacity="0.14"/>

  <rect x="84" y="84" width="1032" height="532" rx="30" fill="white" stroke="#D1D5DB"/>
  <rect x="134" y="134" width="442" height="432" rx="24" fill="#F0FDF4" stroke="#86EFAC"/>
  <rect x="620" y="134" width="446" height="196" rx="24" fill="#EFF6FF" stroke="#93C5FD"/>
  <rect x="620" y="370" width="446" height="196" rx="24" fill="#FFF7ED" stroke="#FDBA74"/>

  <rect x="172" y="176" width="364" height="220" rx="20" fill="white" stroke="#D1D5DB"/>
  <rect x="196" y="208" width="180" height="14" rx="7" fill="#334155" fill-opacity="0.85"/>
  <rect x="196" y="234" width="120" height="10" rx="5" fill="#64748B" fill-opacity="0.7"/>
  <rect x="196" y="256" width="145" height="10" rx="5" fill="#64748B" fill-opacity="0.55"/>
  <rect x="196" y="302" width="96" height="30" rx="10" fill="#22C55E" fill-opacity="0.24"/>
  <circle cx="464" cy="250" r="34" fill="#16A34A"/>
  <rect x="446" y="284" width="36" height="60" rx="10" fill="#16A34A"/>

  <rect x="172" y="426" width="112" height="112" rx="16" fill="#DCFCE7"/>
  <rect x="298" y="426" width="112" height="112" rx="16" fill="#DBEAFE"/>
  <rect x="424" y="426" width="112" height="112" rx="16" fill="#FFE4E6"/>
  <path d="M208 462H248" stroke="#15803D" stroke-width="10" stroke-linecap="round"/>
  <path d="M334 482H374" stroke="#1D4ED8" stroke-width="10" stroke-linecap="round"/>
  <path d="M460 470H500" stroke="#DC2626" stroke-width="10" stroke-linecap="round"/>

  <rect x="656" y="170" width="190" height="124" rx="16" fill="white" stroke="#BFDBFE"/>
  <rect x="862" y="170" width="170" height="124" rx="16" fill="white" stroke="#BFDBFE"/>
  <circle cx="706" cy="214" r="18" fill="#2563EB"/>
  <circle cx="910" cy="214" r="18" fill="#0EA5E9"/>
  <rect x="734" y="206" width="92" height="10" rx="5" fill="#334155" fill-opacity="0.8"/>
  <rect x="938" y="206" width="74" height="10" rx="5" fill="#334155" fill-opacity="0.8"/>
  <rect x="734" y="226" width="72" height="8" rx="4" fill="#64748B" fill-opacity="0.6"/>
  <rect x="938" y="226" width="58" height="8" rx="4" fill="#64748B" fill-opacity="0.6"/>

  <rect x="656" y="406" width="376" height="124" rx="16" fill="white" stroke="#FED7AA"/>
  <rect x="690" y="438" width="140" height="12" rx="6" fill="#7C2D12" fill-opacity="0.85"/>
  <rect x="690" y="462" width="116" height="10" rx="5" fill="#9A3412" fill-opacity="0.65"/>
  <rect x="874" y="434" width="126" height="30" rx="10" fill="#FB923C" fill-opacity="0.3"/>

  <circle cx="114" cy="350" r="10" fill="#16A34A" fill-opacity="0.5"/>
  <circle cx="1098" cy="280" r="10" fill="#0EA5E9" fill-opacity="0.45"/>
  <circle cx="1080" cy="510" r="10" fill="#EF4444" fill-opacity="0.45"/>
</svg>
